HIERARCHY
ROOT RootJoint
{
    OFFSET   0.000000   0.000000   0.000000
    CHANNELS 6 Xposition Yposition Zposition Xrotation Yrotation Zrotation
    JOINT pelvis_lowerback
    {
        OFFSET   0.000000   0.093605   0.000000
        CHANNELS 3 Xrotation Yrotation Zrotation
        JOINT lowerback_torso
        {
            OFFSET   0.000000   0.100000   0.000000
            CHANNELS 3 Xrotation Yrotation Zrotation
            JOINT torso_head
            {
                OFFSET   0.000000   0.282350   0.000000
                CHANNELS 3 Xrotation Yrotation Zrotation
                End Site
                {
                    OFFSET   0.000000   0.192650   0.000000
                }
            }
            JOINT rTorso_Clavicle
            {
                OFFSET  -0.001000   0.157500   0.000000
                CHANNELS 3 Xrotation Yrotation Zrotation
                JOINT rShoulder
                {
                    OFFSET  -0.117647   0.000000   0.000000
                    CHANNELS 3 Xrotation Yrotation Zrotation
                    JOINT rElbow
                    {
                        OFFSET  -0.245000   0.000000   0.000000
                        CHANNELS 3 Xrotation Yrotation Zrotation
                        JOINT rWrist
                        {
                            OFFSET  -0.240000   0.000000   0.000000
                            CHANNELS 3 Xrotation Yrotation Zrotation
                            End Site
                            {
                                OFFSET  -0.116353  -0.002500   0.000000
                            }
                        }
                    }
                }
            }
            JOINT lTorso_Clavicle
            {
                OFFSET   0.001000   0.157500   0.000000
                CHANNELS 3 Xrotation Yrotation Zrotation
                JOINT lShoulder
                {
                    OFFSET   0.117647   0.000000   0.000000
                    CHANNELS 3 Xrotation Yrotation Zrotation
                    JOINT lElbow
                    {
                        OFFSET   0.245000   0.000000   0.000000
                        CHANNELS 3 Xrotation Yrotation Zrotation
                        JOINT lWrist
                        {
                            OFFSET   0.240000   0.000000   0.000000
                            CHANNELS 3 Xrotation Yrotation Zrotation
                            End Site
                            {
                                OFFSET   0.116353  -0.002500   0.000000
                            }
                        }
                    }
                }
            }
        }
    }
    JOINT rHip
    {
        OFFSET  -0.100000  -0.051395   0.000000
        CHANNELS 3 Xrotation Yrotation Zrotation
        JOINT rKnee
        {
            OFFSET   0.000000  -0.410000   0.000000
            CHANNELS 3 Xrotation Yrotation Zrotation
            JOINT rAnkle
            {
                OFFSET   0.000000  -0.390000   0.000000
                CHANNELS 3 Xrotation Yrotation Zrotation
                JOINT rToeJoint
                {
                    OFFSET   0.000000  -0.050000   0.130000
                    CHANNELS 3 Xrotation Yrotation Zrotation
                    End Site
                    {
                        OFFSET  -0.010000   0.002000   0.060000
                    }
                }
            }
        }
    }
    JOINT lHip
    {
        OFFSET   0.100000  -0.051395   0.000000
        CHANNELS 3 Xrotation Yrotation Zrotation
        JOINT lKnee
        {
            OFFSET   0.000000  -0.410000   0.000000
            CHANNELS 3 Xrotation Yrotation Zrotation
            JOINT lAnkle
            {
                OFFSET   0.000000  -0.390000   0.000000
                CHANNELS 3 Xrotation Yrotation Zrotation
                JOINT lToeJoint
                {
                    OFFSET   0.000000  -0.050000   0.130000
                    CHANNELS 3 Xrotation Yrotation Zrotation
                    End Site
                    {
                        OFFSET   0.010000   0.002000   0.060000
                    }
                }
            }
        }
    }
}
MOTION
Frames: 14
Frame Time:   0.008333
 -2.708434   0.909970   3.409127   4.031706 -74.939278   5.571808   3.608191  -0.047439  -2.464676  -5.721291   0.803799  -0.351473  -3.961719  -8.910075   2.012481  -0.442865  -2.266609  -1.543267   8.372155  12.178934  50.874731 179.910471  80.111616 -179.926541  -1.191747   8.611493  -0.264976  -3.491495  13.507292   5.976097 -36.458093  18.200652 -25.000446   0.033813 -74.611871   0.026915  -8.892143  -4.559915  24.109108 -18.637576 -21.552874 -11.788648  30.585296  -0.003467  -0.009228 -13.004249 -21.718170  -3.178899  -0.006830  -0.004965  -0.047951   5.310787  12.907576  11.604297  11.390527  -0.006036  -0.008278   5.819046  15.262859  -5.354476 -27.563662   0.007954   0.008154
 -2.711581   0.908601   3.404331   4.414995 -76.143498   6.139752   3.280187  -0.285734  -2.558400  -5.579086   0.962549  -0.395031  -3.966141  -9.072111   1.917797  -0.320595  -2.231931  -1.309089   8.378123  12.660704  51.364311 179.881909  81.064174 -179.901723  -1.085556   8.736326  -0.371370  -3.067004  14.005187   5.577847 -35.009301  18.529184 -26.155454   0.051908 -74.972553   0.042647  -8.775211  -4.621011  24.243259 -18.738703 -21.396703 -11.143004  30.253446   0.000106  -0.005475 -13.147765 -21.295891  -3.600474   0.451741  -0.006315  -0.040120   5.180455  13.173848  11.707152  12.444299  -0.009884  -0.013511   6.245315  15.790660  -5.651039 -29.272816   0.013030   0.012039
 -2.714940   0.907004   3.399395   4.665943 -77.401621   6.567719   2.957739  -0.520847  -2.621928  -5.427255   1.119587  -0.453079  -3.972514  -9.225685   1.829286  -0.180442  -2.193302  -1.063689   8.401344  13.118216  51.842072 179.850227  81.983598 -179.872868  -0.985962   8.683744  -0.408865  -2.605100  14.484716   5.082642 -33.559705  18.854875 -27.332144   0.065688 -75.303052   0.054523  -8.678899  -4.627433  24.128674 -18.724952 -21.236799 -10.394776  29.939574   0.002945  -0.002546 -13.280346 -20.886862  -3.989664   0.862693  -0.007305  -0.033750   5.038457  13.468518  11.835774  13.636682  -0.013884  -0.018504   6.942537  16.344233  -5.924773 -32.209940   0.025473   0.020160
 -2.718572   0.905343   3.394286   4.905297 -78.738091   7.051307   2.624980  -0.734834  -2.744048  -5.293564   1.272929  -0.548365  -3.979367  -9.368969   1.750940  -0.028142  -2.161620  -0.796930   8.436383  13.549055  52.307814 179.813927  82.850910 -179.838319  -0.890439   8.565408  -0.382307  -2.146105  14.942582   4.538439 -32.162448  19.164373 -28.478128   0.074331 -75.595346   0.061826  -8.624020  -4.550829  23.934015 -18.676131 -21.093502  -9.649428  29.654418   0.005127  -0.000154 -13.400806 -20.503659  -4.350916   1.240623  -0.008061  -0.028895   4.969813  13.755235  11.906599  14.856976  -0.017907  -0.023265   7.514201  16.858130  -6.182488 -34.057762   0.029424   0.025428
 -2.722365   0.903433   3.389046   5.231069 -80.105934   7.645013   2.283997  -0.945020  -2.870939  -5.185658   1.410034  -0.669955  -3.989603  -9.503140   1.676798   0.120766  -2.139488  -0.552549   8.472678  13.948455  52.743356 179.772790  83.660153 -179.797750  -0.799766   8.439502  -0.341373  -1.699678  15.371965   3.982143 -30.828874  19.447550 -29.583150   0.079266 -75.858898   0.065954  -8.601916  -4.412455  23.719190 -18.605201 -20.976435  -8.890381  29.403480   0.006628   0.001647 -13.510320 -20.145422  -4.686156   1.585897  -0.008561  -0.025067   4.944105  14.037547  11.953209  16.059157  -0.021488  -0.027100   8.154048  17.339148  -6.431120 -36.021948   0.033530   0.031959
 -2.726214   0.901545   3.383903   6.238157 -81.652484   8.837652   1.902963  -1.085660  -2.896363  -5.130506   1.576885  -0.769837  -4.004923  -9.626520   1.608862   0.260932  -2.121684  -0.330547   8.508386  14.314231  53.136365 179.721224  84.422606 -179.746197  -0.711882   8.298314  -0.297417  -1.260230  15.802788   3.391223 -29.548519  19.724287 -30.650470   0.081549 -76.098152   0.067848  -8.597139  -4.243277  23.515816 -18.514920 -20.986288  -8.290384  29.337328   0.005890   0.002015 -13.994913 -20.096101  -5.190878  -1.448740   0.002318   0.015581   4.948471  14.336981  12.035855  17.209480  -0.024819  -0.031460   8.821726  17.820678  -6.665204 -37.810411   0.035655   0.039637
 -2.729761   0.900437   3.378637   8.434091 -83.299047  11.028715   1.542114  -1.201619  -2.781169  -5.124276   1.745980  -0.794451  -4.031632  -9.742274   1.558676   0.392264  -2.101614  -0.086823   8.540357  14.649692  53.501749 179.657688  85.153073 -179.682675  -0.625824   8.105528  -0.280922  -0.832618  16.213003   2.746808 -28.320382  19.989472 -31.694476   0.082215 -76.313165   0.068464  -8.603679  -4.056188  23.332895 -18.423221 -20.913102  -7.589498  29.473999   0.003635   0.000135 -14.903309 -19.866356  -5.646818  -0.882151   0.000620   0.006366   4.892137  14.605115  12.282067  18.302962  -0.027817  -0.035823   9.528885  18.294817  -6.888513 -38.557573   0.031986   0.038880
 -2.732886   0.899884   3.372891  10.080988 -84.883088  12.389928   1.404348  -1.289060  -2.465506  -5.041237   1.912749  -0.738062  -4.128512  -9.825306   1.536176   0.526650  -2.155021   0.111183   8.669791  15.082661  53.847110 179.566840  86.034316 -179.592874  -0.526344   8.028746  -0.463838  -0.347847  16.457416   2.165735 -26.663085  20.113483 -33.209964   0.092708 -76.573501   0.078131  -8.574133  -3.959452  23.374006 -17.889637 -20.202814  -6.495314  29.475984   0.002898   0.000100 -15.190387 -19.258563  -5.849559  -0.731358   0.000211   0.005089   4.251047  14.393673  13.081656  20.788758  -0.044685  -0.057081  10.002479  18.530460  -6.812637 -38.016107   0.021587   0.022808
 -2.735963   0.899471   3.367145  12.577230 -86.585575  14.637379   1.295565  -1.337712  -2.213020  -4.899887   2.080511  -0.707267  -4.208538  -9.894651   1.524836   0.680502  -2.192974   0.308602   8.811723  15.502997  54.184796 179.440850  86.867978 -179.467184  -0.431026   7.873368  -0.514077   0.143782  16.645429   1.556937 -25.055725  20.181505 -34.703009   0.100402 -76.812039   0.085368  -8.572998  -3.797865  23.176143 -17.273521 -19.429165  -5.432579  29.393528   0.002728   0.000478 -15.402376 -18.583866  -5.995022  -0.631343  -0.000057   0.004070   3.628584  14.135009  13.818201  23.395725  -0.061629  -0.076758  10.569791  18.693353  -6.764370 -36.632443   0.006553  -0.004665
 -2.739004   0.899063   3.361447  20.221675 -88.322523  22.052339   1.185142  -1.398269  -1.994134  -4.754514   2.225395  -0.705504  -4.279276  -9.958324   1.514445   0.838298  -2.231558   0.494193   8.954805  15.898437  54.503102 179.240101  87.647034 -179.265967  -0.339595   7.700564  -0.493248   0.618014  16.804768   0.949591 -23.532029  20.209816 -36.129432   0.104868 -77.028953   0.089756  -8.594495  -3.589462  22.882105 -16.660337 -18.624965  -4.412118  29.295543   0.002669   0.000890 -15.585616 -17.867170  -6.122061  -0.564975  -0.000199   0.003256   3.060492  13.875355  14.481764  25.943505  -0.076200  -0.091431  11.198078  18.831018  -6.731305 -34.450617  -0.014033  -0.039634
 -2.742016   0.898610   3.355826 114.479158 -89.532603 116.080261   1.062435  -1.484351  -1.791537  -4.623576   2.335832  -0.721135  -4.345378 -10.018331   1.503954   0.994611  -2.278998   0.660663   9.096187  16.262400  54.796038 178.875505  88.374640 -178.900314  -0.251875   7.527816  -0.456894   1.068057  16.939114   0.359059 -22.098730  20.202042 -37.480020   0.106848 -77.228717   0.091952  -8.626686  -3.360525  22.549307 -16.071689 -17.813090  -3.424577  29.198954   0.002607   0.001229 -15.753969 -17.132818  -6.234013  -0.524530  -0.000252   0.002605   2.570811  13.620549  15.043353  28.416477  -0.087416  -0.101846  11.857391  18.917011  -6.715823 -31.808009  -0.037227  -0.074122
 -2.744980   0.898101   3.350242 171.571569 -88.047143 172.936568   0.928982  -1.602391  -1.608985  -4.511692   2.405924  -0.746786  -4.408941 -10.075429   1.494102   1.147420  -2.336415   0.810139   9.234208  16.594945  55.065086 178.032462  89.054398 -178.055806  -0.167836   7.357542  -0.430631   1.488958  17.045906  -0.202258 -20.759392  20.158572 -38.750308   0.107034 -77.414886   0.092568  -8.660616  -3.130343  22.196142 -15.510885 -17.013195  -2.464932  29.105824   0.002531   0.001480 -15.914115 -16.402482  -6.333294  -0.504841  -0.000247   0.002084   2.142813  13.382972  15.520862  30.757141  -0.094818  -0.107537  12.484922  18.991072  -6.704209 -29.271880  -0.057265  -0.097030
 -2.747879   0.897533   3.344671 177.439922 -86.374391 178.561111   0.789468  -1.749070  -1.448885  -4.417451   2.438155  -0.780579  -4.470529 -10.129721   1.484200   1.295311  -2.401585   0.944326   9.367555  16.898698  55.312301 173.959512  89.688601 -173.981128  -0.087472   7.190219  -0.421014   1.878576  17.125211  -0.727855 -19.513567  20.082120 -39.939646   0.105969 -77.590260   0.092080  -8.690384  -2.911895  21.829277 -14.977106 -16.234311  -1.531023  29.017830   0.002436   0.001644 -16.069679 -15.686518  -6.421304  -0.501936  -0.000205   0.001667   1.760360  13.162855  15.929695  32.953035  -0.098787  -0.109296  13.071095  19.060758  -6.693457 -26.947122  -0.072563  -0.109206
 -2.750553   0.897410   3.339507 -179.108287 -84.645030 -178.166434   0.779844  -1.676573  -1.344851  -4.253807   2.430784  -0.814098  -4.533178 -10.072179   1.496929   1.404999  -2.505040   1.081131   9.485048  17.041475  55.493389   6.038823  89.685514  -6.058811  -0.014567   6.968401  -0.336015   2.239280  16.997446  -1.203803 -17.885683  19.655561 -41.384084   0.107806 -77.753676   0.094604  -8.724360  -2.711259  21.743596 -14.275079 -15.375747  -0.676016  28.737744   0.003191   0.002775 -16.108755 -14.922485  -6.603137  -0.484649  -0.000186   0.001342   1.417913  12.462301  16.049323  35.887919  -0.112916  -0.130605  12.312826  18.891549  -6.205487 -24.749236  -0.085364  -0.132763
